<?xml version="1.0" encoding="utf-8"?>
<!-- Generator: Adobe Illustrator 25.2.1, SVG Export Plug-In . SVG Version: 6.00 Build 0)  -->
<svg version="1.1" id="Layer_1" xmlns="http://www.w3.org/2000/svg" xmlns:xlink="http://www.w3.org/1999/xlink" x="0px" y="0px"
	 viewBox="0 0 72 72" style="enable-background:new 0 0 72 72;" xml:space="preserve">
<style type="text/css">
	.st0{fill:none;stroke:#000000;stroke-miterlimit:10;}
	.st1{fill:#FFFFFF;stroke:#000000;stroke-miterlimit:10;}
	.st2{fill:#EE4536;}
	.st3{fill:none;stroke:#FFFFFF;stroke-miterlimit:10;}
	.st4{fill:#EF4136;stroke:#FFFFFF;stroke-miterlimit:10;}
	.st5{fill:#EE4536;stroke:#FFFFFF;stroke-miterlimit:10;}
	.st6{fill:none;stroke:#000000;stroke-width:0.7;stroke-miterlimit:10;}
</style>
<g>
	<circle class="st2" cx="36" cy="36" r="33.5"/>
	<g>
		<line class="st3" x1="13.5" y1="20" x2="13.5" y2="50.5"/>
		<line class="st3" x1="58.5" y1="20" x2="58.5" y2="50.5"/>
		<path class="st3" d="M43.2,20H28.7c-8.4,0-15.2,6.9-15.2,15.2v0c0,8.4,6.9,15.2,15.2,15.2h7l5.3,5.3l5.7-5.7l0,0
			c6.7-1.6,11.7-7.7,11.7-14.8v0C58.4,26.8,51.6,20,43.2,20z"/>
		<circle class="st5" cx="44.2" cy="20" r="1.1"/>
		<rect x="12.5" y="34.1" class="st5" width="1.9" height="1.9"/>
		<rect x="57.5" y="34.1" class="st5" width="1.9" height="1.9"/>
		<circle class="st5" cx="41" cy="56" r="1.1"/>
		<circle class="st5" cx="46.7" cy="50.1" r="1.1"/>
		<circle class="st5" cx="35.6" cy="50.5" r="1.1"/>
		<circle class="st5" cx="27.7" cy="50.5" r="1.1"/>
		<circle class="st5" cx="27.7" cy="20" r="1.1"/>
		<circle class="st5" cx="13.5" cy="20" r="1.1"/>
		<circle class="st5" cx="58.4" cy="20" r="1.1"/>
		<circle class="st5" cx="13.5" cy="50.5" r="1.1"/>
		<circle class="st5" cx="58.4" cy="50.5" r="1.1"/>
	</g>
</g>
</svg>
